<svg width="179" height="52" viewBox="0 0 179 52" fill="none" xmlns="http://www.w3.org/2000/svg">
<path d="M77.1059 32.7731C74.572 32.7731 71.7889 31.6158 70.2105 29.9211V32.1944H65.2259V3.83978H70.2105V13.8011C71.7889 12.1064 74.572 10.9491 77.1059 10.9491C83.6689 10.9491 88.0719 15.3304 88.0719 21.8611C88.0719 28.3918 83.6689 32.7731 77.1059 32.7731ZM76.6074 28.3918C80.512 28.3918 83.0874 25.7878 83.0874 21.8611C83.0874 17.9344 80.512 15.3304 76.6074 15.3304C72.7859 15.3304 70.2105 17.9344 70.2105 21.8611C70.2105 25.7878 72.7859 28.3918 76.6074 28.3918ZM91.0653 8.38644V3.83978H96.0499V8.38644H91.0653ZM91.0653 32.1944V11.5278H96.0499V32.1944H91.0653ZM109.339 32.7731C105.185 32.7731 102.443 30.4171 102.443 26.9038V15.6611H99.1203V11.5278H102.443V3.83978H107.428V11.5278H112.662V15.6611H107.428V26.9038C107.428 27.9371 108.176 28.6398 109.256 28.6398H112.87V32.1944C112.122 32.5251 110.71 32.7731 109.339 32.7731ZM125.256 10.9491C127.79 10.9491 130.573 12.1064 132.151 13.8011V11.5278H137.136V39.8824H132.151V29.9211C130.573 31.6158 127.79 32.7731 125.256 32.7731C118.693 32.7731 114.29 28.3918 114.29 21.8611C114.29 15.3304 118.693 10.9491 125.256 10.9491ZM125.754 15.3304C121.85 15.3304 119.274 17.9344 119.274 21.8611C119.274 25.7878 121.85 28.3918 125.754 28.3918C129.576 28.3918 132.151 25.7878 132.151 21.8611C132.151 17.9344 129.576 15.3304 125.754 15.3304ZM150.93 32.7731C144.45 32.7731 140.13 28.3918 140.13 21.8611C140.13 15.3304 144.45 10.9491 150.93 10.9491C153.381 10.9491 156.081 12.0651 157.659 13.7598V11.5278H162.644V32.1944H157.659V29.9624C156.081 31.6571 153.381 32.7731 150.93 32.7731ZM151.428 28.3918C155.167 28.3918 157.659 25.7878 157.659 21.8611C157.659 17.9344 155.167 15.3304 151.428 15.3304C147.648 15.3304 145.115 17.9344 145.115 21.8611C145.115 25.7878 147.648 28.3918 151.428 28.3918ZM166.476 32.1944V11.5278H171.46V13.9664C172.54 12.2718 174.576 11.1144 176.487 11.1144C177.234 11.1144 178.107 11.2798 178.688 11.5278V15.3304H176.985C173.662 15.3304 171.46 17.1904 171.46 19.9598V32.1944H166.476Z" fill="black"/>
<path d="M0 0.333332H48.4615C50.3733 0.333332 51.9231 1.8755 51.9231 3.77778V26.1667C51.9231 40.434 40.2997 52 25.9615 52H0V0.333332Z" fill="black"/>
<path d="M66.9646 43.2201C67.7036 43.2201 68.5153 43.5577 68.9757 44.0519V43.3889H70.4296V51.659H68.9757V48.7536C68.5153 49.2479 67.7036 49.5854 66.9646 49.5854C65.0503 49.5854 63.7661 48.3076 63.7661 46.4028C63.7661 44.498 65.0503 43.2201 66.9646 43.2201ZM67.11 44.498C65.9711 44.498 65.22 45.2575 65.22 46.4028C65.22 47.5481 65.9711 48.3076 67.11 48.3076C68.2246 48.3076 68.9757 47.5481 68.9757 46.4028C68.9757 45.2575 68.2246 44.498 67.11 44.498ZM77.4089 43.3889V49.4167H75.9551V48.9706C75.5552 49.3443 74.901 49.5854 74.3074 49.5854C72.6476 49.5854 71.5451 48.6089 71.5451 47.1382V43.3889H72.9989V46.9694C72.9989 47.7771 73.5926 48.3076 74.477 48.3076C75.3614 48.3076 75.9551 47.7771 75.9551 46.9694V43.3889H77.4089ZM81.4333 49.5854C79.5433 49.5854 78.2833 48.3076 78.2833 46.4028C78.2833 44.498 79.5433 43.2201 81.4333 43.2201C82.1481 43.2201 82.9356 43.5456 83.396 44.0399V43.3889H84.8498V49.4167H83.396V48.7657C82.9356 49.2599 82.1481 49.5854 81.4333 49.5854ZM81.5787 48.3076C82.6691 48.3076 83.396 47.5481 83.396 46.4028C83.396 45.2575 82.6691 44.498 81.5787 44.498C80.4762 44.498 79.7371 45.2575 79.7371 46.4028C79.7371 47.5481 80.4762 48.3076 81.5787 48.3076ZM85.9676 49.4167V43.3889H87.4211V43.8349C87.8209 43.4612 88.4752 43.2201 89.0688 43.2201C90.7286 43.2201 91.8311 44.1966 91.8311 45.6674V49.4167H90.3773V45.8362C90.3773 45.0284 89.7836 44.498 88.8992 44.498C88.0148 44.498 87.4211 45.0284 87.4211 45.8362V49.4167H85.9676ZM95.4735 49.5854C94.262 49.5854 93.4624 48.8983 93.4624 47.8736V44.5944H92.4932V43.3889H93.4624V41.1466H94.9162V43.3889H96.4428V44.5944H94.9162V47.8736C94.9162 48.1749 95.1343 48.3799 95.4493 48.3799H96.5033V49.4167C96.2853 49.5131 95.8733 49.5854 95.4735 49.5854ZM103.26 43.3889V49.4167H101.806V48.9706C101.407 49.3443 100.752 49.5854 100.159 49.5854C98.4989 49.5854 97.3964 48.6089 97.3964 47.1382V43.3889H98.8503V46.9694C98.8503 47.7771 99.4439 48.3076 100.328 48.3076C101.213 48.3076 101.806 47.7771 101.806 46.9694V43.3889H103.26ZM104.377 49.4167V43.3889H105.831V43.9314C106.195 43.4733 106.728 43.2201 107.309 43.2201C107.867 43.2201 108.509 43.5094 108.921 43.9434C109.345 43.5094 110.072 43.2201 110.738 43.2201C112.18 43.2201 113.149 44.0158 113.149 45.2093V49.4167H111.695V45.3539C111.695 44.8356 111.259 44.498 110.593 44.498C109.926 44.498 109.49 44.8356 109.49 45.3539V49.4167H108.036V45.3539C108.036 44.8356 107.6 44.498 106.934 44.498C106.267 44.498 105.831 44.8356 105.831 45.3539V49.4167H104.377ZM120.762 49.5854C120.023 49.5854 119.211 49.2479 118.751 48.7536V49.4167H117.297V41.1466H118.751V44.0519C119.211 43.5577 120.023 43.2201 120.762 43.2201C122.676 43.2201 123.96 44.498 123.96 46.4028C123.96 48.3076 122.676 49.5854 120.762 49.5854ZM120.616 48.3076C121.755 48.3076 122.506 47.5481 122.506 46.4028C122.506 45.2575 121.755 44.498 120.616 44.498C119.502 44.498 118.751 45.2575 118.751 46.4028C118.751 47.5481 119.502 48.3076 120.616 48.3076ZM124.716 49.4167V41.1466H126.17V49.4167H124.716ZM130.323 49.5854C128.349 49.5854 127.04 48.3076 127.04 46.4028C127.04 44.498 128.349 43.2201 130.323 43.2201C132.298 43.2201 133.607 44.498 133.607 46.4028C133.607 48.3076 132.298 49.5854 130.323 49.5854ZM130.323 48.3076C131.426 48.3076 132.153 47.5481 132.153 46.4028C132.153 45.2575 131.426 44.498 130.323 44.498C129.221 44.498 128.494 45.2575 128.494 46.4028C128.494 47.5481 129.221 48.3076 130.323 48.3076ZM137.517 49.5854C135.543 49.5854 134.234 48.3076 134.234 46.4028C134.234 44.498 135.543 43.2201 137.517 43.2201C139.153 43.2201 140.413 44.2448 140.68 45.7759H139.286C139.092 45.0043 138.39 44.498 137.517 44.498C136.415 44.498 135.688 45.2575 135.688 46.4028C135.688 47.5481 136.415 48.3076 137.517 48.3076C138.402 48.3076 139.117 47.7771 139.298 46.9694H140.692C140.437 48.5366 139.165 49.5854 137.517 49.5854ZM141.563 49.4167V41.1466H143.017V45.4383L145.064 43.3889H147.1L144.531 45.8964L147.391 49.4167H145.525L143.489 46.9091L143.017 47.3793V49.4167H141.563ZM150.532 49.5854C148.557 49.5854 147.249 48.3076 147.249 46.4028C147.249 44.498 148.557 43.2201 150.532 43.2201C152.167 43.2201 153.427 44.2448 153.694 45.7759H152.301C152.107 45.0043 151.404 44.498 150.532 44.498C149.429 44.498 148.702 45.2575 148.702 46.4028C148.702 47.5481 149.429 48.3076 150.532 48.3076C151.416 48.3076 152.131 47.7771 152.313 46.9694H153.706C153.452 48.5366 152.18 49.5854 150.532 49.5854ZM154.578 49.4167V41.1466H156.031V43.8349C156.431 43.4612 157.085 43.2201 157.679 43.2201C159.339 43.2201 160.441 44.1966 160.441 45.6674V49.4167H158.988V45.8362C158.988 45.0284 158.394 44.498 157.51 44.498C156.625 44.498 156.031 45.0284 156.031 45.8362V49.4167H154.578ZM164.466 49.5854C162.576 49.5854 161.316 48.3076 161.316 46.4028C161.316 44.498 162.576 43.2201 164.466 43.2201C165.181 43.2201 165.969 43.5456 166.429 44.0399V43.3889H167.883V49.4167H166.429V48.7657C165.969 49.2599 165.181 49.5854 164.466 49.5854ZM164.612 48.3076C165.702 48.3076 166.429 47.5481 166.429 46.4028C166.429 45.2575 165.702 44.498 164.612 44.498C163.509 44.498 162.77 45.2575 162.77 46.4028C162.77 47.5481 163.509 48.3076 164.612 48.3076ZM169.001 42.4727V41.1466H170.455V42.4727H169.001ZM169.001 49.4167V43.3889H170.455V49.4167H169.001ZM171.568 49.4167V43.3889H173.022V43.8349C173.421 43.4612 174.076 43.2201 174.669 43.2201C176.329 43.2201 177.432 44.1966 177.432 45.6674V49.4167H175.978V45.8362C175.978 45.0284 175.384 44.498 174.5 44.498C173.615 44.498 173.022 45.0284 173.022 45.8362V49.4167H171.568Z" fill="black"/>
</svg>
