<svg width="208" height="72" viewBox="0 0 208 72" fill="none" xmlns="http://www.w3.org/2000/svg">
<path d="M89.1001 49.672C86.1721 49.672 82.9561 48.328 81.1321 46.36V49H75.3721V16.072H81.1321V27.64C82.9561 25.672 86.1721 24.328 89.1001 24.328C96.6841 24.328 101.772 29.416 101.772 37C101.772 44.584 96.6841 49.672 89.1001 49.672ZM88.5241 44.584C93.0361 44.584 96.0121 41.56 96.0121 37C96.0121 32.44 93.0361 29.416 88.5241 29.416C84.1081 29.416 81.1321 32.44 81.1321 37C81.1321 41.56 84.1081 44.584 88.5241 44.584ZM105.231 21.352V16.072H110.991V21.352H105.231ZM105.231 49V25H110.991V49H105.231ZM126.347 49.672C121.547 49.672 118.379 46.936 118.379 42.856V29.8H114.539V25H118.379V16.072H124.139V25H130.187V29.8H124.139V42.856C124.139 44.056 125.003 44.872 126.251 44.872H130.427V49C129.563 49.384 127.931 49.672 126.347 49.672ZM144.74 24.328C147.668 24.328 150.884 25.672 152.708 27.64V25H158.468V57.928H152.708V46.36C150.884 48.328 147.668 49.672 144.74 49.672C137.156 49.672 132.068 44.584 132.068 37C132.068 29.416 137.156 24.328 144.74 24.328ZM145.316 29.416C140.804 29.416 137.828 32.44 137.828 37C137.828 41.56 140.804 44.584 145.316 44.584C149.732 44.584 152.708 41.56 152.708 37C152.708 32.44 149.732 29.416 145.316 29.416ZM174.408 49.672C166.92 49.672 161.928 44.584 161.928 37C161.928 29.416 166.92 24.328 174.408 24.328C177.24 24.328 180.36 25.624 182.184 27.592V25H187.944V49H182.184V46.408C180.36 48.376 177.24 49.672 174.408 49.672ZM174.984 44.584C179.304 44.584 182.184 41.56 182.184 37C182.184 32.44 179.304 29.416 174.984 29.416C170.616 29.416 167.688 32.44 167.688 37C167.688 41.56 170.616 44.584 174.984 44.584ZM192.372 49V25H198.132V27.832C199.38 25.864 201.732 24.52 203.94 24.52C204.804 24.52 205.812 24.712 206.484 25V29.416H204.516C200.676 29.416 198.132 31.576 198.132 34.792V49H192.372Z" fill="black"/>
<path d="M0 12H56C58.2091 12 60 13.7909 60 16V42C60 58.5685 46.5685 72 30 72H0V12Z" fill="black"/>
<path d="M77.3813 61.804C78.2353 61.804 79.1733 62.196 79.7053 62.77V62H81.3853V71.604H79.7053V68.23C79.1733 68.804 78.2353 69.196 77.3813 69.196C75.1693 69.196 73.6853 67.712 73.6853 65.5C73.6853 63.288 75.1693 61.804 77.3813 61.804ZM77.5493 63.288C76.2333 63.288 75.3653 64.17 75.3653 65.5C75.3653 66.83 76.2333 67.712 77.5493 67.712C78.8373 67.712 79.7053 66.83 79.7053 65.5C79.7053 64.17 78.8373 63.288 77.5493 63.288ZM89.4503 62V69H87.7703V68.482C87.3083 68.916 86.5523 69.196 85.8663 69.196C83.9483 69.196 82.6743 68.062 82.6743 66.354V62H84.3543V66.158C84.3543 67.096 85.0403 67.712 86.0623 67.712C87.0843 67.712 87.7703 67.096 87.7703 66.158V62H89.4503ZM94.1007 69.196C91.9167 69.196 90.4607 67.712 90.4607 65.5C90.4607 63.288 91.9167 61.804 94.1007 61.804C94.9267 61.804 95.8367 62.182 96.3687 62.756V62H98.0487V69H96.3687V68.244C95.8367 68.818 94.9267 69.196 94.1007 69.196ZM94.2687 67.712C95.5287 67.712 96.3687 66.83 96.3687 65.5C96.3687 64.17 95.5287 63.288 94.2687 63.288C92.9947 63.288 92.1407 64.17 92.1407 65.5C92.1407 66.83 92.9947 67.712 94.2687 67.712ZM99.3403 69V62H101.02V62.518C101.482 62.084 102.238 61.804 102.924 61.804C104.842 61.804 106.116 62.938 106.116 64.646V69H104.436V64.842C104.436 63.904 103.75 63.288 102.728 63.288C101.706 63.288 101.02 63.904 101.02 64.842V69H99.3403ZM110.325 69.196C108.925 69.196 108.001 68.398 108.001 67.208V63.4H106.881V62H108.001V59.396H109.681V62H111.445V63.4H109.681V67.208C109.681 67.558 109.933 67.796 110.297 67.796H111.515V69C111.263 69.112 110.787 69.196 110.325 69.196ZM119.323 62V69H117.643V68.482C117.181 68.916 116.425 69.196 115.739 69.196C113.821 69.196 112.547 68.062 112.547 66.354V62H114.227V66.158C114.227 67.096 114.913 67.712 115.935 67.712C116.957 67.712 117.643 67.096 117.643 66.158V62H119.323ZM120.614 69V62H122.294V62.63C122.714 62.098 123.33 61.804 124.002 61.804C124.646 61.804 125.388 62.14 125.864 62.644C126.354 62.14 127.194 61.804 127.964 61.804C129.63 61.804 130.75 62.728 130.75 64.114V69H129.07V64.282C129.07 63.68 128.566 63.288 127.796 63.288C127.026 63.288 126.522 63.68 126.522 64.282V69H124.842V64.282C124.842 63.68 124.338 63.288 123.568 63.288C122.798 63.288 122.294 63.68 122.294 64.282V69H120.614ZM139.547 69.196C138.693 69.196 137.755 68.804 137.223 68.23V69H135.543V59.396H137.223V62.77C137.755 62.196 138.693 61.804 139.547 61.804C141.759 61.804 143.243 63.288 143.243 65.5C143.243 67.712 141.759 69.196 139.547 69.196ZM139.379 67.712C140.695 67.712 141.563 66.83 141.563 65.5C141.563 64.17 140.695 63.288 139.379 63.288C138.091 63.288 137.223 64.17 137.223 65.5C137.223 66.83 138.091 67.712 139.379 67.712ZM144.116 69V59.396H145.796V69H144.116ZM150.596 69.196C148.314 69.196 146.802 67.712 146.802 65.5C146.802 63.288 148.314 61.804 150.596 61.804C152.878 61.804 154.39 63.288 154.39 65.5C154.39 67.712 152.878 69.196 150.596 69.196ZM150.596 67.712C151.87 67.712 152.71 66.83 152.71 65.5C152.71 64.17 151.87 63.288 150.596 63.288C149.322 63.288 148.482 64.17 148.482 65.5C148.482 66.83 149.322 67.712 150.596 67.712ZM158.909 69.196C156.627 69.196 155.115 67.712 155.115 65.5C155.115 63.288 156.627 61.804 158.909 61.804C160.799 61.804 162.255 62.994 162.563 64.772H160.953C160.729 63.876 159.917 63.288 158.909 63.288C157.635 63.288 156.795 64.17 156.795 65.5C156.795 66.83 157.635 67.712 158.909 67.712C159.931 67.712 160.757 67.096 160.967 66.158H162.577C162.283 67.978 160.813 69.196 158.909 69.196ZM163.584 69V59.396H165.264V64.38L167.63 62H169.982L167.014 64.912L170.318 69H168.162L165.81 66.088L165.264 66.634V69H163.584ZM173.948 69.196C171.666 69.196 170.154 67.712 170.154 65.5C170.154 63.288 171.666 61.804 173.948 61.804C175.838 61.804 177.294 62.994 177.602 64.772H175.992C175.768 63.876 174.956 63.288 173.948 63.288C172.674 63.288 171.834 64.17 171.834 65.5C171.834 66.83 172.674 67.712 173.948 67.712C174.97 67.712 175.796 67.096 176.006 66.158H177.616C177.322 67.978 175.852 69.196 173.948 69.196ZM178.623 69V59.396H180.303V62.518C180.765 62.084 181.521 61.804 182.207 61.804C184.125 61.804 185.399 62.938 185.399 64.646V69H183.719V64.842C183.719 63.904 183.033 63.288 182.011 63.288C180.989 63.288 180.303 63.904 180.303 64.842V69H178.623ZM190.05 69.196C187.866 69.196 186.41 67.712 186.41 65.5C186.41 63.288 187.866 61.804 190.05 61.804C190.876 61.804 191.786 62.182 192.318 62.756V62H193.998V69H192.318V68.244C191.786 68.818 190.876 69.196 190.05 69.196ZM190.218 67.712C191.478 67.712 192.318 66.83 192.318 65.5C192.318 64.17 191.478 63.288 190.218 63.288C188.944 63.288 188.09 64.17 188.09 65.5C188.09 66.83 188.944 67.712 190.218 67.712ZM195.29 60.936V59.396H196.97V60.936H195.29ZM195.29 69V62H196.97V69H195.29ZM198.256 69V62H199.936V62.518C200.398 62.084 201.154 61.804 201.84 61.804C203.758 61.804 205.032 62.938 205.032 64.646V69H203.352V64.842C203.352 63.904 202.666 63.288 201.644 63.288C200.622 63.288 199.936 63.904 199.936 64.842V69H198.256Z" fill="black"/>
</svg>
