<svg width="48" height="48" viewBox="0 0 48 48" fill="none" xmlns="http://www.w3.org/2000/svg">
<path d="M37.8617 11.2827C35.3122 10.1129 32.5783 9.25106 29.7198 8.75744C29.6678 8.74792 29.6158 8.77172 29.589 8.81934C29.2374 9.4447 28.8479 10.2605 28.5752 10.9018C25.5007 10.4415 22.442 10.4415 19.4305 10.9018C19.1577 10.2463 18.7541 9.4447 18.401 8.81934C18.3741 8.77331 18.3221 8.7495 18.2701 8.75744C15.4132 9.24949 12.6793 10.1113 10.1282 11.2827C10.1061 11.2922 10.0872 11.3081 10.0746 11.3288C4.88899 19.076 3.46842 26.6329 4.1653 34.096C4.16845 34.1325 4.18895 34.1675 4.21733 34.1897C7.63868 36.7022 10.9528 38.2276 14.2055 39.2386C14.2575 39.2545 14.3127 39.2355 14.3458 39.1926C15.1152 38.1419 15.8011 37.034 16.3891 35.8689C16.4238 35.8007 16.3907 35.7197 16.3198 35.6928C15.2319 35.2801 14.196 34.7769 13.1996 34.2055C13.1207 34.1595 13.1144 34.0468 13.1869 33.9928C13.3966 33.8357 13.6064 33.6722 13.8066 33.5071C13.8428 33.477 13.8933 33.4706 13.9359 33.4897C20.4821 36.4784 27.5692 36.4784 34.0383 33.4897C34.0808 33.469 34.1313 33.4754 34.1691 33.5055C34.3694 33.6706 34.5791 33.8357 34.7904 33.9928C34.8629 34.0468 34.8581 34.1595 34.7793 34.2055C33.7829 34.788 32.747 35.2801 31.6575 35.6912C31.5866 35.7182 31.555 35.8007 31.5897 35.8689C32.1904 37.0324 32.8763 38.1402 33.6315 39.191C33.663 39.2355 33.7198 39.2545 33.7718 39.2386C37.0402 38.2276 40.3544 36.7022 43.7757 34.1897C43.8057 34.1675 43.8246 34.1341 43.8278 34.0976C44.6618 25.4694 42.4308 17.9745 37.9137 11.3303C37.9026 11.3081 37.8838 11.2922 37.8617 11.2827ZM17.3667 29.5517C15.3958 29.5517 13.7719 27.7423 13.7719 25.5202C13.7719 23.298 15.3643 21.4886 17.3667 21.4886C19.3848 21.4886 20.993 23.3139 20.9615 25.5202C20.9615 27.7423 19.369 29.5517 17.3667 29.5517ZM30.6579 29.5517C28.6871 29.5517 27.0632 27.7423 27.0632 25.5202C27.0632 23.298 28.6555 21.4886 30.6579 21.4886C32.6761 21.4886 34.2842 23.3139 34.2527 25.5202C34.2527 27.7423 32.6761 29.5517 30.6579 29.5517Z" fill="black"/>
</svg>
